<svg xmlns="http://www.w3.org/2000/svg" viewBox="0 0 512 512">
  <defs><linearGradient id="g" x1="0" y1="0" x2="1" y2="1"><stop stop-color="#4f46e5"/><stop offset="1" stop-color="#7c3aed"/></linearGradient></defs>
  <rect width="512" height="512" rx="128" fill="url(#g)"/>
  <circle cx="256" cy="256" r="176" fill="none" stroke="#fff" stroke-opacity=".18" stroke-width="12"/>
  <path d="M335 168c-23-19-52-29-85-29-62 0-107 32-107 82 0 49 41 66 101 79 35 8 48 16 48 32 0 17-17 27-45 27-34 0-65-13-91-38l-34 42c32 34 76 52 124 52 70 0 119-34 119-88 0-49-36-69-105-84-31-7-44-14-44-28 0-15 15-24 38-24 27 0 52 9 74 26z" fill="#fff"/>
</svg>
